<?xml version="1.0" encoding="UTF-8"?>
<svg width="544px" height="544px" viewBox="0 0 544 544" version="1.1" xmlns="http://www.w3.org/2000/svg" xmlns:xlink="http://www.w3.org/1999/xlink">
    <!-- Generator: Sketch 54.1 (76490) - https://sketchapp.com -->
    <title>vMix-Tally-NodeMCU</title>
    <desc>Created with Sketch.</desc>
    <g id="vMix-Tally-NodeMCU" stroke="none" stroke-width="1" fill="none" fill-rule="evenodd">
        <polygon id="Fill-11" fill="#BF0000" points="384 160 544 160 544 0 384 0"></polygon>
        <polygon id="Fill-12" fill="#41ED2D" points="0 544 160 544 160 384 0 384"></polygon>
        <g id="vMix" transform="translate(-0.000000, 37.000000)" fill="#FFFFFE">
            <polyline id="Fill-14" points="0 36 22.1705133 36 44.0798317 87.3363589 65.9413705 36 88 36 51.0942696 123 36.985363 123 0 36"></polyline>
            <polyline id="Fill-15" points="115.29297 6 137.029469 6 164.1986 87.6060369 191.616477 6 213.339046 6 233 123 211.42469 123 198.859987 49.1095498 173.961418 123 154.296483 123 129.619598 49.1095498 116.75202 123 95 123 115.29297 6"></polyline>
            <path d="M245.974447,123 L267.945162,123 L267.945162,35.8752 L245.974447,35.8752 L245.974447,123 Z M256.959805,0 C260.810508,0 264.114556,1.3892 266.86793,4.1644 C269.621303,6.9408 271,10.304 271,14.254 C271,18.1516 269.637382,21.4748 266.908125,24.2236 C264.178869,26.974 260.919035,28.3476 257.120586,28.3476 C253.213609,28.3476 249.885444,26.9464 247.128051,24.1436 C244.374677,21.3408 243,17.9376 243,13.9336 C243,10.09 244.362618,6.8068 247.087855,4.084 C249.817112,1.3616 253.105082,0 256.959805,0 L256.959805,0 Z" id="Fill-16"></path>
            <polyline id="Fill-17" points="279.13463 36 304.605008 36 321.883605 59.7115861 339.073903 36 364.118838 36 334.438182 76.9412705 368 123 342.529622 123 321.735102 94.4633354 301.048949 123 276 123 309.180525 77.233651 279.13463 36"></polyline>
        </g>
        <path d="M67.6323166,226.444369 L67.6323166,341 L43.4113768,341 L43.4113768,226.444369 L0,226.444369 L0,205 L113,205 L113,226.444369 L67.6323166,226.444369 Z M194.240093,341 L184.263403,313.4 L137.456876,313.4 L127.946387,341 L101,341 L155.452214,203 L166.081585,203 L221,341 L194.240093,341 Z M160,245 L144,295 L176,295 L160,245 Z M239,341 L239,205 L263.251627,205 L263.251627,319.555631 L325,319.555631 L325,341 L239,341 Z M348,341 L348,205 L372.251627,205 L372.251627,319.555631 L434,319.555631 L434,341 L348,341 Z M500.195827,285.207509 L500.195827,341 L475.990369,341 L475.990369,285.207509 L430,205 L455.695024,205 L488,263.020478 L520.398074,205 L546,205 L500.195827,285.207509 Z" id="TALLY" fill="#FFFFFF" fill-rule="nonzero"></path>
    </g>
</svg>