<svg id="Layer_1" data-name="Layer 1" xmlns="http://www.w3.org/2000/svg" xmlns:xlink="http://www.w3.org/1999/xlink" viewBox="0 0 347.51 156.96"><defs><style>.cls-1{fill:#e5e5e5;}.cls-2{fill:#1b2a08;}.cls-3{fill:url(#New_Gradient_Swatch);}.cls-4{fill:#c2f432;}</style><linearGradient id="New_Gradient_Swatch" x1="7028.2" y1="7207.96" x2="7337.57" y2="7207.96" gradientUnits="userSpaceOnUse"><stop offset="0" stop-color="#6ab525"/><stop offset="0.11" stop-color="#63b734"/><stop offset="0.21" stop-color="#59b948"/><stop offset="0.45" stop-color="#75c942"/><stop offset="0.96" stop-color="#bcf133"/><stop offset="1" stop-color="#c2f432"/></linearGradient></defs><path class="cls-1" d="M7103.27,7269.71a43.68,43.68,0,0,1-24.59-7.27,27.15,27.15,0,0,1-20-10.2,35.52,35.52,0,0,1-9.15,1.22c-11.68,0-22.76-6-30.4-16.55a46.13,46.13,0,0,1-6.91-41.2c7.68-22.88,25.37-43.9,54.09-64.3,9.63-7.09,19.14-10.72,28.18-10.72,7.35,0,17.48,2.51,26.16,13.62,6-5,13.17-9.29,22.61-9.29H7290a34.38,34.38,0,0,1,29.08,15.89h.51a20.42,20.42,0,0,1,18.17,12c7.13,5,11.8,14.18,9.48,23.33a22.55,22.55,0,0,1,9.67,14.18c2.17,9.32-1.29,17.78-4.35,25.25-.45,1.11-.89,2.17-1.3,3.23a24.78,24.78,0,0,1-4.27,20.55c-5.17,7.14-13.52,11.58-21.79,11.58h0a22.87,22.87,0,0,1-11.68-3.19,24,24,0,0,1-8.59,1.57,26.15,26.15,0,0,1-11.63-2.77,38.57,38.57,0,0,1-14.16,2.77,30.5,30.5,0,0,1-17.08-4.93,27,27,0,0,1-24.11,2,41.21,41.21,0,0,1-16.44,3.36,43.42,43.42,0,0,1-17.14-3.53,29.37,29.37,0,0,1-10.8,2.08,25.62,25.62,0,0,1-11-2.39,29.72,29.72,0,0,1-10.09,1.77,28.18,28.18,0,0,1-10.92-2.17,27.74,27.74,0,0,1-12.21,2.8,26.74,26.74,0,0,1-3.93-.28C7136.23,7261.33,7120.08,7269.71,7103.27,7269.71Z" transform="translate(-7010.06 -7120.69)"/><path class="cls-2" d="M7288.92,7187.88H7143.09c-38.81-.65-38.88-58.45,0-59.12h145.83a29.56,29.56,0,0,1,0,59.12Z" transform="translate(-7010.06 -7120.69)"/><path d="M7162.63,7140.41c16.93,20.69,2.84,47.46-17.54,61.61,18.59,37.58-32.06,78.86-65.88,54.15a22.29,22.29,0,0,1-19.62-11.07c-28.39,10.67-52.61-21.71-43.68-49.11,8.7-25.94,30.51-46.34,52.23-61.77,19.32-14.23,38.43-13.63,50.53,6.3C7134.4,7131.58,7150.27,7126.64,7162.63,7140.41Zm7.45,137.13h.11l-.11.11Z" transform="translate(-7010.06 -7120.69)"/><path d="M7182.91,7136.25c11.62,9.61,9.51,21.18,3.39,35.18q-18.07,45.16-19.18,55.69c-6.76,28-46.87,13.93-38.91-14.58,1.34-6.77,14.36-39.16,16.33-46,5.28-13.42,2.36-15.9,5.26-25.65C7155.14,7128.81,7173.83,7128.88,7182.91,7136.25Z" transform="translate(-7010.06 -7120.69)"/><path d="M7217.54,7168.25c17.76,13.74,2.44,33.18-3.72,49.44-3,7.4-1.3,14.63-7.68,19.84-6.63,5.48-17,6.1-24.33,1.65-55.85,16.17-33-81.56,10.3-74C7199.91,7161.58,7211.05,7163,7217.54,7168.25Z" transform="translate(-7010.06 -7120.69)"/><path d="M7249.11,7159.05c7.1,4.52,8.6,13.15,7.79,20.93-7.53,6.2-3.61,16.09-10.53,22.37,17.46,26.62-15.68,49.89-40.45,38.36-18.24-5.38-23.2-36.12-2.3-40.89-4.53-13.3-.93-24,11.4-34.63C7225.83,7155.39,7237,7151.18,7249.11,7159.05Z" transform="translate(-7010.06 -7120.69)"/><path d="M7329.79,7150.17c9.93,11.68.93,30.22-13.76,32.55-9.26,2.31-25.87-1-35.13-1.31q-5.81,14.68-10.25,27.4c-6.1,13.67-2,20-10.35,28.72-13.54,11.25-35.08.65-34.37-17.15-1-9.46,8.25-28.09,12.33-40.51-19.88-7.44-12.25-34.14,8.88-35.51,4.31-19.6,36.36-15.88,41.44,1.53,8.53.48,19.91.93,26-.65A14.28,14.28,0,0,1,7329.79,7150.17Z" transform="translate(-7010.06 -7120.69)"/><path d="M7312.58,7172.31c9.1,11.63,5.12,29.93-4.6,40.56,9.2,27.51-44.4,44.05-54.15,13.59-4.83-13-2.88-28.39,3.94-40.67C7267.49,7166.11,7297.12,7153.2,7312.58,7172.31Z" transform="translate(-7010.06 -7120.69)"/><path d="M7348.53,7184.37c6.77,10.56.44,22.63-3.61,33,5.91,18-16.74,35.35-32,23.46-11.46,6.72-29.76-2.18-29.16-16a13.7,13.7,0,0,1,6.25-11.07q3.18-5.49,9.42-23.68c-6.15-15.56,4.48-38.3,22.37-38.26,12.22-.52,25,13.27,18.08,25.54A16.78,16.78,0,0,1,7348.53,7184.37Z" transform="translate(-7010.06 -7120.69)"/><path class="cls-2" d="M7162.63,7140.41c16.93,20.69,2.84,47.46-17.54,61.61,18.59,37.58-32.06,78.86-65.88,54.15a22.29,22.29,0,0,1-19.62-11.07c-28.39,10.67-52.61-21.71-43.68-49.11,8.7-25.94,30.51-46.34,52.23-61.77,19.32-14.23,38.43-13.63,50.53,6.3C7134.4,7131.58,7150.27,7126.64,7162.63,7140.41Zm7.45,137.13h.11l-.11.11Z" transform="translate(-7010.06 -7120.69)"/><path class="cls-2" d="M7182.91,7136.25c11.62,9.61,9.51,21.18,3.39,35.18q-18.07,45.16-19.18,55.69c-6.76,28-46.87,13.93-38.91-14.58,1.34-6.77,14.36-39.16,16.33-46,5.28-13.42,2.36-15.9,5.26-25.65C7155.14,7128.81,7173.83,7128.88,7182.91,7136.25Z" transform="translate(-7010.06 -7120.69)"/><path class="cls-2" d="M7217.54,7168.25c17.76,13.74,2.44,33.18-3.72,49.44-3,7.4-1.3,14.63-7.68,19.84-6.63,5.48-17,6.1-24.33,1.65-55.85,16.17-33-81.56,10.3-74C7199.91,7161.58,7211.05,7163,7217.54,7168.25Z" transform="translate(-7010.06 -7120.69)"/><path class="cls-2" d="M7249.11,7159.05c7.1,4.52,8.6,13.15,7.79,20.93-7.53,6.2-3.61,16.09-10.53,22.37,17.46,26.62-15.68,49.89-40.45,38.36-18.24-5.38-23.2-36.12-2.3-40.89-4.53-13.3-.93-24,11.4-34.63C7225.83,7155.39,7237,7151.18,7249.11,7159.05Z" transform="translate(-7010.06 -7120.69)"/><path class="cls-2" d="M7329.79,7150.17c9.93,11.68.93,30.22-13.76,32.55-9.26,2.31-25.87-1-35.13-1.31q-5.81,14.68-10.25,27.4c-6.1,13.67-2,20-10.35,28.72-13.54,11.25-35.08.65-34.37-17.15-1-9.46,8.25-28.09,12.33-40.51-19.88-7.44-12.25-34.14,8.88-35.51,4.31-19.6,36.36-15.88,41.44,1.53,8.53.48,19.91.93,26-.65A14.28,14.28,0,0,1,7329.79,7150.17Z" transform="translate(-7010.06 -7120.69)"/><path class="cls-2" d="M7312.58,7172.31c9.1,11.63,5.12,29.93-4.6,40.56,9.2,27.51-44.4,44.05-54.15,13.59-4.83-13-2.88-28.39,3.94-40.67C7267.49,7166.11,7297.12,7153.2,7312.58,7172.31Z" transform="translate(-7010.06 -7120.69)"/><path class="cls-2" d="M7348.53,7184.37c6.77,10.56.44,22.63-3.61,33,5.91,18-16.74,35.35-32,23.46-11.46,6.72-29.76-2.18-29.16-16a13.7,13.7,0,0,1,6.25-11.07q3.18-5.49,9.42-23.68c-6.15-15.56,4.48-38.3,22.37-38.26,12.22-.52,25,13.27,18.08,25.54A16.78,16.78,0,0,1,7348.53,7184.37Z" transform="translate(-7010.06 -7120.69)"/><path d="M7145.42,7145.78c6.36.25,10,7.68,10.68,13.54,1.3,18.46-17.69,31.78-32.93,40.18,18.12,7.8,13.17,32.87-.72,43.24-9.91,8.92-32.15,10.23-39.19-2.47-4.46-8.33-1.52-24.44,7.46-28.61,2.11,2.69-4.16,12.42-2.47,16.5,1.11,9.91,13.17,10.39,21.1,7.29,10-3.65,16.34-12.33,16.12-23-3.54-7.09-15.57-9.85-22.58-7.78-2.76-.9-4.63-6.63-3.51-9.1,1.05-3,6.44-.3,12.55-3.67,14.72-6.16,32.21-17.82,35.57-34.92-16.32-1.47-33.29,17.59-45.49,30-13.27,15.68-26.57,35.05-21.27,53.55,1.64,3.59-5.77,1.51-7.4-.11-16.76-16.86,19.57-74.6,23.63-92.95-25.08,7.93-52.83,35.69-50.87,64.34.72,6.56,3.67,15.79,11.29,17.32-2.46,7-15,4.4-20.05.22-11.37-8.05-11.59-28.26-3.68-40.06,7-14.41,54.64-66.36,68.13-46.54,11.6,6-.17,21.39-3.4,32.89C7111.2,7162.17,7128.18,7146.23,7145.42,7145.78ZM7170,7277.54h.11l-.11.11Z" transform="translate(-7010.06 -7120.69)"/><path d="M7174.58,7147.1c5.58,5.77,2.34,9.88-1.1,19.18q-18.75,47-20.06,59.41c-1,3.56-7.15,3.14-9.43,1.21-8.27-8.55,4.58-27.84,8.17-40.78,3.28-9.06,8.21-22.06,9.7-31.62,1.29-4-.82-6.51,1.2-8.72C7165.22,7144,7172.33,7145.08,7174.58,7147.1Z" transform="translate(-7010.06 -7120.69)"/><path d="M7209.1,7179.22c9.37,9-7,23.57-8.6,34.75-2.14,4.8-1.51,9.46-3.56,13.26-7.19,3.72-13.17-2.21-11.18-10.74-14.28,22.42-28.87,7.76-21.6-13.05,2.08-14.68,29.92-40.29,31.79-13,2.25-4.86-.37-9.41,1.64-12.61C7199.74,7176.18,7207,7177,7209.1,7179.22Zm-16.33,17.32c1.61-29.81-26.66,17.25-17.43,25.32,7.31-4.19,13.64-14.57,16.88-23.57" transform="translate(-7010.06 -7120.69)"/><path d="M7241.22,7170.34a4.3,4.3,0,0,1,1.86,4.6c-2.06,1.81-6.91,13.24-6.24,15.68l.54.22c-1.78,6.24-10.47-1.37-4.71-10.75-14.42,12.41-8.27,17.3.82,27.79,12,15-7.27,26.45-21.7,20.33-6.09-1.18-12.3-12.07-5.1-14.85a2,2,0,0,1,2,1.7c1.91,5.22,9.85,5.3,15,3.34,15.56-4.9-17.54-20-5.43-36.44,3.29-4.23,15.16-16.64,19.95-12.17A3.27,3.27,0,0,1,7241.22,7170.34Z" transform="translate(-7010.06 -7120.69)"/><path d="M7318.17,7158.5c1.35-.09,1.74,1.52,1.92,2.85.15,6-4.78,8.4-12.22,8.44-9.46-.41-29.1-2.57-36.07-2.85q-18.53,46.37-19.84,58.75c-.26,2.39-3.47,2.48-5.26,2.64-13.42-3.46-5.2-16.43-.11-31.35q7.89-20.61,10.85-30.59a130,130,0,0,0-14.58.33c-.6.12-1.44,0-1.42-.66-4.54-8,10.35-8.89,18.42-8.44,2-5.59-.25-9.22,1.75-11.84,7.58-3.63,18.47,3.37,13.37,12.94Q7308.09,7161.35,7318.17,7158.5Z" transform="translate(-7010.06 -7120.69)"/><path d="M7287.59,7177.57c32.53-8.92,8.59,50.51-8.11,25-6.62,13.71-1.12,29.08,13.92,15.57a1.09,1.09,0,0,1,1.64-.05c.95,6.31-11.46,11.36-17.21,11.23C7252.58,7226,7268,7180.29,7287.59,7177.57Zm8,12.94c.06-11.25-11.78,3-14,7.78C7284.62,7208.56,7296.15,7196.79,7295.59,7190.51Z" transform="translate(-7010.06 -7120.69)"/><path d="M7330.12,7189.63c20.93-2.78-10.12,37.51,1.64,33.21-1.27,14.49-18.63,7-14-5.59,1.46-7.43,4.56-14.36,7.56-21.59,1.6-3.53-2.35-2.14-4.22-3q-2.52,5-8.22,22c-2.12,6.69-5.17,19.62-14,12.66-1-.92-2-1.91-.82-2.35,1.8,1.94,11.25-19.4,16.33-36.18-8.15-7.76,2.29-31.83,13.16-20.06.22.16.48,1,.22,1.21C7324.66,7178.91,7319.22,7189.77,7330.12,7189.63Z" transform="translate(-7010.06 -7120.69)"/><path class="cls-3" d="M7145.42,7145.78c6.36.25,10,7.68,10.68,13.54,1.3,18.46-17.69,31.78-32.93,40.18,18.12,7.8,13.17,32.87-.72,43.24-9.91,8.92-32.15,10.23-39.19-2.47-4.46-8.33-1.52-24.44,7.46-28.61,2.11,2.69-4.16,12.42-2.47,16.5,1.11,9.91,13.17,10.39,21.1,7.29,10-3.65,16.34-12.33,16.12-23-3.54-7.09-15.57-9.85-22.58-7.78-2.76-.9-4.63-6.63-3.51-9.1,1.05-3,6.44-.3,12.55-3.67,14.72-6.16,32.21-17.82,35.57-34.92-16.32-1.47-33.29,17.59-45.49,30-13.27,15.68-26.57,35.05-21.27,53.55,1.64,3.59-5.77,1.51-7.4-.11-16.76-16.86,19.57-74.6,23.63-92.95-25.08,7.93-52.83,35.69-50.87,64.34.72,6.56,3.67,15.79,11.29,17.32-2.46,7-15,4.4-20.05.22-11.37-8.05-11.59-28.26-3.68-40.06,7-14.41,54.64-66.36,68.13-46.54,11.6,6-.17,21.39-3.4,32.89C7111.2,7162.17,7128.18,7146.23,7145.42,7145.78ZM7170,7277.54h.11l-.11.11Z" transform="translate(-7010.06 -7120.69)"/><path class="cls-3" d="M7174.58,7147.1c5.58,5.77,2.34,9.88-1.1,19.18q-18.75,47-20.06,59.41c-1,3.56-7.15,3.14-9.43,1.21-8.27-8.55,4.58-27.84,8.17-40.78,3.28-9.06,8.21-22.06,9.7-31.62,1.29-4-.82-6.51,1.2-8.72C7165.22,7144,7172.33,7145.08,7174.58,7147.1Z" transform="translate(-7010.06 -7120.69)"/><path class="cls-3" d="M7209.1,7179.22c9.37,9-7,23.57-8.6,34.75-2.14,4.8-1.51,9.46-3.56,13.26-7.19,3.72-13.17-2.21-11.18-10.74-14.28,22.42-28.87,7.76-21.6-13.05,2.08-14.68,29.92-40.29,31.79-13,2.25-4.86-.37-9.41,1.64-12.61C7199.74,7176.18,7207,7177,7209.1,7179.22Zm-16.33,17.32c1.61-29.81-26.66,17.25-17.43,25.32,7.31-4.19,13.64-14.57,16.88-23.57" transform="translate(-7010.06 -7120.69)"/><path class="cls-3" d="M7241.22,7170.34a4.3,4.3,0,0,1,1.86,4.6c-2.06,1.81-6.91,13.24-6.24,15.68l.54.22c-1.78,6.24-10.47-1.37-4.71-10.75-14.42,12.41-8.27,17.3.82,27.79,12,15-7.27,26.45-21.7,20.33-6.09-1.18-12.3-12.07-5.1-14.85a2,2,0,0,1,2,1.7c1.91,5.22,9.85,5.3,15,3.34,15.56-4.9-17.54-20-5.43-36.44,3.29-4.23,15.16-16.64,19.95-12.17A3.27,3.27,0,0,1,7241.22,7170.34Z" transform="translate(-7010.06 -7120.69)"/><path class="cls-3" d="M7318.17,7158.5c1.35-.09,1.74,1.52,1.92,2.85.15,6-4.78,8.4-12.22,8.44-9.46-.41-29.1-2.57-36.07-2.85q-18.53,46.37-19.84,58.75c-.26,2.39-3.47,2.48-5.26,2.64-13.42-3.46-5.2-16.43-.11-31.35q7.89-20.61,10.85-30.59a130,130,0,0,0-14.58.33c-.6.12-1.44,0-1.42-.66-4.54-8,10.35-8.89,18.42-8.44,2-5.59-.25-9.22,1.75-11.84,7.58-3.63,18.47,3.37,13.37,12.94Q7308.09,7161.35,7318.17,7158.5Z" transform="translate(-7010.06 -7120.69)"/><path class="cls-3" d="M7287.59,7177.57c32.53-8.92,8.59,50.51-8.11,25-6.62,13.71-1.12,29.08,13.92,15.57a1.09,1.09,0,0,1,1.64-.05c.95,6.31-11.46,11.36-17.21,11.23C7252.58,7226,7268,7180.29,7287.59,7177.57Zm8,12.94c.06-11.25-11.78,3-14,7.78C7284.62,7208.56,7296.15,7196.79,7295.59,7190.51Z" transform="translate(-7010.06 -7120.69)"/><path class="cls-3" d="M7330.12,7189.63c20.93-2.78-10.12,37.51,1.64,33.21-1.27,14.49-18.63,7-14-5.59,1.46-7.43,4.56-14.36,7.56-21.59,1.6-3.53-2.35-2.14-4.22-3q-2.52,5-8.22,22c-2.12,6.69-5.17,19.62-14,12.66-1-.92-2-1.91-.82-2.35,1.8,1.94,11.25-19.4,16.33-36.18-8.15-7.76,2.29-31.83,13.16-20.06.22.16.48,1,.22,1.21C7324.66,7178.91,7319.22,7189.77,7330.12,7189.63Z" transform="translate(-7010.06 -7120.69)"/><path class="cls-4" d="M7080,7147c5.46.87,16.8-6.85,18.88.46,1,5.14-.8,11.42,4.66,14.85,2.59-7.46,6.47-16-1.76-19.56-7.05-9.68-15.58-3.1-26.4,3.16A8,8,0,0,0,7080,7147Z" transform="translate(-7010.06 -7120.69)"/><path class="cls-4" d="M7152,7149.28c-11.77-10.8-31.19,6.17-42.24,15.08,6.21.48,11.35-3.6,16.32-6.7,8.87-5.21,19.43-1.19,29.08-2.6A17.75,17.75,0,0,0,7152,7149.28Z" transform="translate(-7010.06 -7120.69)"/><path class="cls-4" d="M7166.33,7158.64c8.92,4.79,15.31-5.56,8.23-11.54-2.24-2-9.35-3.1-11.51-1.31-2,2,.05,4.46-1.11,8.09l.63-.16A7.91,7.91,0,0,0,7166.33,7158.64Z" transform="translate(-7010.06 -7120.69)"/><path class="cls-4" d="M7209.11,7179.22c-2.11-2.18-9.36-3-11.51-1.43-2,1.65,0,4.17-.56,6.51,3.71,4.05,7.08,9.38,12.8,9C7212.75,7188.16,7213.25,7182.18,7209.11,7179.22Z" transform="translate(-7010.06 -7120.69)"/><path class="cls-4" d="M7185.82,7182.92c3.29-2.5,5.83-2.45,8.06-1.21-3.47-5.56-11.91-2.82-16.52,1.17C7180,7184.39,7183.38,7184.77,7185.82,7182.92Z" transform="translate(-7010.06 -7120.69)"/><path class="cls-4" d="M7241.18,7170.28a3.25,3.25,0,0,0-3.06-.55c-5.57-5.27-25.81,14.4-22.35,21.58,5.52-3.33,10-10,16.12-11.5a18.39,18.39,0,0,0,11-7.3A4.32,4.32,0,0,0,7241.18,7170.28Z" transform="translate(-7010.06 -7120.69)"/><path class="cls-4" d="M7249.17,7165.65c6.64.82,14.65,1.16,19.2-4.67,7.5,3.79,18,4.35,24.74-1.14q-8-.3-18.12-1.1c5.1-9.57-5.8-16.56-13.37-12.93-2,2.6.22,6.25-1.76,11.83-8.06-.45-22.95.45-18.41,8.45.73,1.54,3.46.13,5,.41C7247.36,7165,7246.51,7165.46,7249.17,7165.65Z" transform="translate(-7010.06 -7120.69)"/><path class="cls-4" d="M7301.69,7180.46c-5-7.37-19-2.75-24.89,3,4.19,3.64,9.76.17,14.57,1.1-.54-.09.25.32.51.39a9.39,9.39,0,0,0,.16,1.72c3.5-2.23,4,2.09,3.45,5.06a9.55,9.55,0,0,0,8,.78C7304.47,7188.46,7304.06,7183.38,7301.69,7180.46Z" transform="translate(-7010.06 -7120.69)"/><path class="cls-4" d="M7318.57,7180.51a20.64,20.64,0,0,1,8.63-8.74,9.68,9.68,0,0,0,.62-1.76c.27-.17,0-1.05-.22-1.21-9.19-10.51-18.85,7.32-15.44,15.82A8.32,8.32,0,0,0,7318.57,7180.51Z" transform="translate(-7010.06 -7120.69)"/><path class="cls-4" d="M7188.39,7159.46h-4.13V7142.9H7178v-4.14h16.55v4.14h-6.2Z" transform="translate(-7010.06 -7120.69)"/><path class="cls-4" d="M7208.91,7159.46H7208l-1.53-2.13c-4.8,5.1-13.8,1.38-13.31-5.74-.39-7,8.57-11,13.31-5.73L7208,7144h.95Zm-4-7.87c.11-5.32-8.15-5.56-7.82,0C7196.79,7157.15,7205.05,7156.9,7204.94,7151.59Z" transform="translate(-7010.06 -7120.69)"/><path class="cls-4" d="M7215.88,7159.46h-4v-21.61h4Z" transform="translate(-7010.06 -7120.69)"/><path class="cls-4" d="M7222.86,7159.46h-4v-21.61h4Z" transform="translate(-7010.06 -7120.69)"/><path class="cls-4" d="M7229.58,7165.34v-4c2.16.23,4.86-.05,5.66-2.45-10.28,4-10-8.33-9.58-14.92h3.92c.59,2.71-1.93,12,3,11.82,4.75-.09,2.44-9.11,3-11.82h4C7239.2,7151.77,7242.34,7167,7229.58,7165.34Z" transform="translate(-7010.06 -7120.69)"/></svg>